<svg width="35" height="36" viewBox="0 0 35 36" fill="none" xmlns="http://www.w3.org/2000/svg">
<g clip-path="url(#clip0_385_10679)">
<path fill-rule="evenodd" clip-rule="evenodd" d="M17.6695 0.95459C8.19415 0.95459 0.519531 8.62662 0.519531 18.0988C0.519531 25.6851 5.42872 32.0928 12.2458 34.3644C13.1033 34.5144 13.4249 34.0001 13.4249 33.55C13.4249 33.1428 13.4035 31.7927 13.4035 30.3569C9.09453 31.1498 7.97978 29.3068 7.63678 28.3425C7.44384 27.8496 6.60778 26.328 5.8789 25.9208C5.27865 25.5994 4.42115 24.8065 5.85747 24.785C7.20803 24.7636 8.17272 26.028 8.49428 26.5423C10.0378 29.1354 12.5031 28.4068 13.4892 27.9567C13.6393 26.8423 14.0895 26.0923 14.5825 25.6637C10.7667 25.2351 6.77928 23.7564 6.77928 17.1987C6.77928 15.3343 7.44384 13.7913 8.53715 12.5912C8.36565 12.1626 7.7654 10.4053 8.70865 8.04801C8.70865 8.04801 10.145 7.59797 13.4249 9.80529C14.7969 9.41954 16.2547 9.22667 17.7124 9.22667C19.1701 9.22667 20.6279 9.41954 21.9999 9.80529C25.2798 7.57654 26.7161 8.04801 26.7161 8.04801C27.6594 10.4053 27.0591 12.1626 26.8876 12.5912C27.981 13.7913 28.6455 15.3129 28.6455 17.1987C28.6455 23.7778 24.6367 25.2351 20.8208 25.6637C21.4425 26.1994 21.9785 27.2281 21.9785 28.8354C21.9785 31.1284 21.957 32.9714 21.957 33.55C21.957 34.0001 22.2786 34.5358 23.1361 34.3644C26.5406 33.2153 29.499 31.0279 31.5948 28.1101C33.6907 25.1923 34.8185 21.6909 34.8195 18.0988C34.8195 8.62662 27.1449 0.95459 17.6695 0.95459Z" fill="black"/>
</g>
<defs>
<clipPath id="clip0_385_10679">
<rect width="34.3" height="34.2884" fill="white" transform="translate(0.519531 0.95459)"/>
</clipPath>
</defs>
</svg>
