<svg width="31" height="29" viewBox="0 0 31 29" fill="none" xmlns="http://www.w3.org/2000/svg">
<path d="M25.0977 13.7898H30.0749V19.1215C30.0749 20.4953 28.9593 21.6094 27.5856 21.6094H25.0977V13.7898ZM0.925781 3.12506V25.8751L17.2781 28.7611V0.239014L0.925781 3.12506ZM13.0124 11.0161L10.1687 11.0876V19.4759H8.03516V11.229L5.19286 11.3719V9.45276L13.0124 9.02693V11.0161ZM18.6985 11.6563V23.743H21.5422C22.7206 23.743 23.6758 22.7878 23.6758 21.6109V11.6563H18.6985ZM20.832 4.54693C19.9774 4.54693 19.2206 4.93193 18.6985 5.52839V9.25443C19.2191 9.85089 19.9774 10.2359 20.832 10.2359C21.5864 10.2359 22.3099 9.9362 22.8434 9.40276C23.3768 8.86932 23.6765 8.14581 23.6765 7.39141C23.6765 6.63701 23.3768 5.9135 22.8434 5.38006C22.3099 4.84662 21.5864 4.54693 20.832 4.54693Z" fill="black" fill-opacity="0.5"/>
</svg>
