<svg width="48" height="37" viewBox="0 0 48 37" fill="none" xmlns="http://www.w3.org/2000/svg">
<path d="M40.635 3.98395C37.575 2.60395 34.295 1.58395 30.865 1.00395C30.8344 0.998083 30.8028 1.00186 30.7745 1.01476C30.7462 1.02766 30.7226 1.04904 30.707 1.07595C30.287 1.81395 29.819 2.77595 29.491 3.53595C25.8532 2.99242 22.1548 2.99242 18.517 3.53595C18.1516 2.69367 17.7397 1.8724 17.283 1.07595C17.2675 1.04871 17.2441 1.02685 17.2158 1.01327C17.1876 0.999688 17.1559 0.995041 17.125 0.999947C13.697 1.57995 10.417 2.59995 7.35496 3.98195C7.32862 3.993 7.30629 4.01184 7.29096 4.03595C1.06696 13.1859 -0.639039 22.1099 0.198961 30.9219C0.201293 30.9435 0.207992 30.9644 0.218651 30.9833C0.22931 31.0022 0.243705 31.0188 0.260961 31.0319C3.89375 33.6768 7.94563 35.6916 12.247 36.9919C12.2769 37.0012 12.309 37.0012 12.339 36.9919C12.369 36.9826 12.3954 36.9645 12.415 36.9399C13.3406 35.7021 14.1608 34.3888 14.867 33.0139C14.8768 32.9951 14.8824 32.9745 14.8835 32.9533C14.8846 32.9321 14.8812 32.911 14.8734 32.8912C14.8656 32.8715 14.8537 32.8537 14.8385 32.839C14.8232 32.8243 14.805 32.813 14.785 32.8059C13.493 32.3194 12.2411 31.7323 11.041 31.0499C11.0194 31.0376 11.0012 31.0202 10.9881 30.9991C10.9749 30.978 10.9672 30.954 10.9656 30.9293C10.964 30.9045 10.9686 30.8797 10.979 30.8571C10.9893 30.8346 11.0051 30.8149 11.025 30.7999C11.277 30.6139 11.529 30.4199 11.769 30.2259C11.7906 30.2085 11.8166 30.1974 11.8441 30.1939C11.8717 30.1903 11.8997 30.1945 11.925 30.2059C19.779 33.7339 28.285 33.7339 36.047 30.2059C36.0723 30.1938 36.1006 30.1891 36.1285 30.1923C36.1565 30.1955 36.183 30.2064 36.205 30.2239C36.445 30.4199 36.695 30.6139 36.949 30.7999C36.969 30.8146 36.985 30.834 36.9957 30.8563C37.0064 30.8787 37.0114 30.9034 37.0102 30.9282C37.009 30.9529 37.0017 30.977 36.9889 30.9983C36.9761 31.0195 36.9583 31.0373 36.937 31.0499C35.741 31.7379 34.497 32.3199 33.191 32.8039C33.1709 32.8112 33.1526 32.8227 33.1374 32.8376C33.1221 32.8525 33.1102 32.8705 33.1024 32.8904C33.0947 32.9103 33.0912 32.9316 33.0924 32.9529C33.0935 32.9742 33.0991 32.995 33.109 33.0139C33.829 34.3879 34.653 35.6959 35.559 36.9379C35.5778 36.9634 35.604 36.9825 35.6341 36.9925C35.6642 37.0025 35.6966 37.003 35.727 36.9939C40.0357 35.6972 44.0942 33.6815 47.731 31.0319C47.7487 31.0195 47.7636 31.0035 47.7746 30.9849C47.7857 30.9662 47.7926 30.9455 47.795 30.9239C48.795 20.7359 46.119 11.8839 40.697 4.03995C40.6837 4.01446 40.6617 3.99458 40.635 3.98395ZM16.041 25.5559C13.677 25.5559 11.727 23.4179 11.727 20.7959C11.727 18.1719 13.639 16.0359 16.041 16.0359C18.461 16.0359 20.393 18.1899 20.355 20.7959C20.355 23.4199 18.443 25.5559 16.041 25.5559ZM31.991 25.5559C29.625 25.5559 27.677 23.4179 27.677 20.7959C27.677 18.1719 29.587 16.0359 31.991 16.0359C34.411 16.0359 36.343 18.1899 36.305 20.7959C36.305 23.4199 34.413 25.5559 31.991 25.5559Z" fill="#FEBBA2"/>
</svg>
