<svg width="40" height="40" viewBox="0 0 40 40" fill="none" xmlns="http://www.w3.org/2000/svg">
<path d="M20 2.5C10.3359 2.5 2.5 10.3359 2.5 20C2.5 29.6641 10.3359 37.5 20 37.5C29.6641 37.5 37.5 29.6641 37.5 20C37.5 10.3359 29.6641 2.5 20 2.5ZM20 34.5312C11.9766 34.5312 5.46875 28.0234 5.46875 20C5.46875 11.9766 11.9766 5.46875 20 5.46875C28.0234 5.46875 34.5312 11.9766 34.5312 20C34.5312 28.0234 28.0234 34.5312 20 34.5312Z" fill="black"/>
<path d="M24.3594 12.3711C23.1875 11.3438 21.6406 10.7812 20 10.7812C18.3594 10.7812 16.8125 11.3477 15.6406 12.3711C14.4219 13.4375 13.75 14.8711 13.75 16.4062V16.7031C13.75 16.875 13.8906 17.0156 14.0625 17.0156H15.9375C16.1094 17.0156 16.25 16.875 16.25 16.7031V16.4062C16.25 14.6836 17.9336 13.2812 20 13.2812C22.0664 13.2812 23.75 14.6836 23.75 16.4062C23.75 17.6211 22.8906 18.7344 21.5586 19.2461C20.7305 19.5625 20.0273 20.1172 19.5234 20.8437C19.0117 21.5859 18.7461 22.4766 18.7461 23.3789V24.2188C18.7461 24.3906 18.8867 24.5312 19.0586 24.5312H20.9336C21.1055 24.5312 21.2461 24.3906 21.2461 24.2188V23.332C21.2481 22.9528 21.3644 22.583 21.5797 22.2708C21.795 21.9587 22.0994 21.7186 22.4531 21.582C24.7578 20.6953 26.2461 18.6641 26.2461 16.4062C26.25 14.8711 25.5781 13.4375 24.3594 12.3711ZM18.4375 28.5938C18.4375 29.0082 18.6021 29.4056 18.8951 29.6986C19.1882 29.9916 19.5856 30.1562 20 30.1562C20.4144 30.1562 20.8118 29.9916 21.1049 29.6986C21.3979 29.4056 21.5625 29.0082 21.5625 28.5938C21.5625 28.1793 21.3979 27.7819 21.1049 27.4889C20.8118 27.1959 20.4144 27.0312 20 27.0312C19.5856 27.0312 19.1882 27.1959 18.8951 27.4889C18.6021 27.7819 18.4375 28.1793 18.4375 28.5938Z" fill="black"/>
</svg>
