<svg width="50" height="50" viewBox="0 0 50 50" fill="none" xmlns="http://www.w3.org/2000/svg">
<path d="M46.8183 24.0139L25.985 3.18061C25.7248 2.92193 25.3728 2.77673 25.0058 2.77673C24.6389 2.77673 24.2869 2.92193 24.0267 3.18061L3.19334 24.0139C2.96581 24.2796 2.84691 24.6214 2.86041 24.971C2.87391 25.3205 3.01882 25.6521 3.26617 25.8995C3.51353 26.1468 3.84511 26.2917 4.19466 26.3052C4.54421 26.3187 4.88598 26.1998 5.15168 25.9723L24.9989 6.12506L44.8461 25.9862C45.1118 26.2137 45.4536 26.3326 45.8031 26.3191C46.1527 26.3056 46.4843 26.1607 46.7316 25.9133C46.979 25.666 47.1239 25.3344 47.1374 24.9849C47.1509 24.6353 47.032 24.2935 46.8045 24.0278L46.8183 24.0139Z" fill="black"/>
<path d="M38.8876 44.4445H31.9431V30.5556H18.0543V44.4445H11.1098V25.0001L8.33203 27.7779V44.4445C8.33203 45.1812 8.62469 45.8878 9.14562 46.4087C9.66656 46.9297 10.3731 47.2223 11.1098 47.2223H20.832V33.3334H29.1654V47.2223H38.8876C39.6243 47.2223 40.3308 46.9297 40.8518 46.4087C41.3727 45.8878 41.6654 45.1812 41.6654 44.4445V27.4445L38.8876 24.6667V44.4445Z" fill="black"/>
</svg>
