<svg width="60" height="60" viewBox="0 0 60 60" fill="none" xmlns="http://www.w3.org/2000/svg">
<path d="M56.1819 28.8167L31.1819 3.81669C30.8696 3.50627 30.4472 3.33203 30.0069 3.33203C29.5666 3.33203 29.1442 3.50627 28.8319 3.81669L3.83191 28.8167C3.55887 29.1355 3.41619 29.5456 3.4324 29.9651C3.4486 30.3846 3.62248 30.7825 3.91931 31.0793C4.21613 31.3761 4.61403 31.55 5.03349 31.5662C5.45295 31.5824 5.86308 31.4397 6.18191 31.1667L29.9986 7.35002L53.8152 31.1834C54.1341 31.4564 54.5442 31.5991 54.9637 31.5829C55.3831 31.5667 55.781 31.3928 56.0779 31.096C56.3747 30.7991 56.5486 30.4012 56.5648 29.9818C56.581 29.5623 56.4383 29.1522 56.1652 28.8334L56.1819 28.8167Z" fill="white"/>
<path d="M46.6652 53.3349H38.3319V36.6682H21.6652V53.3349H13.3319V30.0016L9.99854 33.3349V53.3349C9.99854 54.219 10.3497 55.0668 10.9748 55.6919C11.6 56.3171 12.4478 56.6682 13.3319 56.6682H24.9985V40.0016H34.9985V56.6682H46.6652C47.5493 56.6682 48.3971 56.3171 49.0222 55.6919C49.6473 55.0668 49.9985 54.219 49.9985 53.3349V32.9349L46.6652 29.6016V53.3349Z" fill="white"/>
</svg>
