<svg width="33" height="32" viewBox="0 0 33 32" fill="none" xmlns="http://www.w3.org/2000/svg">
<path fill-rule="evenodd" clip-rule="evenodd" d="M0.609375 3.00947C0.609375 2.31303 0.886128 1.64512 1.37875 1.15266C1.87137 0.660207 2.53951 0.383548 3.23618 0.383548H29.4214C29.7666 0.382985 30.1086 0.450501 30.4277 0.582231C30.7468 0.713961 31.0368 0.907318 31.2811 1.15123C31.5253 1.39515 31.7191 1.68483 31.8512 2.00369C31.9833 2.32255 32.0512 2.66434 32.051 3.00947V29.1858C32.0514 29.531 31.9837 29.8729 31.8518 30.1919C31.7198 30.5109 31.5263 30.8008 31.2822 31.045C31.0381 31.2891 30.7482 31.4828 30.4291 31.6149C30.1101 31.7469 29.7681 31.8148 29.4228 31.8146H3.23618C2.89111 31.8146 2.54941 31.7466 2.23062 31.6146C1.91183 31.4825 1.62218 31.289 1.37824 31.045C1.1343 30.801 0.940844 30.5113 0.808919 30.1926C0.676994 29.8738 0.609188 29.5322 0.609375 29.1873V3.00947ZM13.0546 12.3674H17.312V14.5047C17.9266 13.276 19.4987 12.1702 21.8611 12.1702C26.3901 12.1702 27.4634 14.6175 27.4634 19.1079V27.4257H22.8801V20.1308C22.8801 17.5735 22.2655 16.1305 20.7049 16.1305C18.5397 16.1305 17.6393 17.6863 17.6393 20.1308V27.4257H13.0546V12.3674ZM5.19414 27.23H9.77891V12.1702H5.19414V27.2285V27.23ZM10.4349 7.25838C10.4435 7.6508 10.3737 8.04099 10.2294 8.40606C10.0852 8.77113 9.86945 9.10372 9.59488 9.38431C9.32031 9.6649 8.99244 9.88783 8.63051 10.04C8.26858 10.1922 7.87989 10.2706 7.48724 10.2706C7.09459 10.2706 6.7059 10.1922 6.34397 10.04C5.98205 9.88783 5.65417 9.6649 5.3796 9.38431C5.10503 9.10372 4.88929 8.77113 4.74504 8.40606C4.60079 8.04099 4.53094 7.6508 4.53958 7.25838C4.55655 6.48811 4.87456 5.7551 5.4255 5.21634C5.97645 4.67758 6.71653 4.37589 7.48724 4.37589C8.25796 4.37589 8.99803 4.67758 9.54898 5.21634C10.0999 5.7551 10.4179 6.48811 10.4349 7.25838Z" fill="black"/>
</svg>
