<svg width="156" height="47" viewBox="0 0 156 47" fill="none" xmlns="http://www.w3.org/2000/svg">
<g clip-path="url(#clip0_775_20166)">
<path d="M23.2508 46.4C36.0638 46.4 46.4508 36.013 46.4508 23.2C46.4508 10.387 36.0638 0 23.2508 0C10.4378 0 0.0507812 10.387 0.0507812 23.2C0.0507812 36.013 10.4378 46.4 23.2508 46.4Z" fill="#FFE2DE"/>
<path d="M19.2103 27.2008C19.2103 27.2008 11.2103 25.0208 7.07031 39.3408C7.07031 39.2908 20.1603 36.9508 19.2103 27.2008Z" fill="#FD5513" stroke="white" stroke-miterlimit="10"/>
<path d="M23.8905 34.3711L18.1505 37.8711C18.0998 39.4727 17.6821 41.0412 16.9297 42.4559C16.1772 43.8706 15.1101 45.0937 13.8105 46.0311C13.8105 46.0311 25.0505 46.2011 23.8905 34.3711Z" fill="#37357E" stroke="white" stroke-miterlimit="10"/>
<path d="M12.1501 22.6295L8.65013 28.3695C7.04882 28.4199 5.48064 28.8385 4.06725 29.5929C2.65387 30.3473 1.43326 31.4171 0.500133 32.7195C0.500133 32.7195 0.330133 21.4795 12.1501 22.6295Z" fill="#37357E" stroke="white" stroke-miterlimit="10"/>
<path d="M39.5204 6.9589C20.7404 4.9589 8.97038 28.8189 8.97038 28.8189C8.23038 30.1389 9.97038 31.3589 9.97038 31.3589C14.9704 25.1789 19.2704 26.7489 19.6304 26.8889C19.7804 27.2589 21.3504 31.5789 15.1704 36.5589C15.1704 36.5589 16.3904 38.2789 17.7004 37.5589C17.6504 37.5089 41.5504 25.7389 39.5204 6.9589Z" fill="#FD5513" stroke="white" stroke-miterlimit="10"/>
<path d="M39.5601 7.03125L33.7901 7.27125C33.7901 7.27125 33.2201 13.6713 39.1801 12.6613L39.5601 7.03125Z" fill="#37357E" stroke="white" stroke-miterlimit="10"/>
<path d="M27.9196 22.3509C30.0293 22.3509 31.7396 20.6407 31.7396 18.5309C31.7396 16.4212 30.0293 14.7109 27.9196 14.7109C25.8099 14.7109 24.0996 16.4212 24.0996 18.5309C24.0996 20.6407 25.8099 22.3509 27.9196 22.3509Z" fill="#37357E" stroke="white" stroke-miterlimit="10"/>
<path d="M56.3229 22.2695H60.0849V10.5215H64.6609V7.15553H51.7249V10.5215H56.3229V22.2695ZM71.9341 19.5195C70.7241 19.5195 69.8221 18.7495 69.4701 17.6055H77.5881C77.5881 13.2715 75.4761 10.6315 71.8681 10.6315C68.4361 10.6315 65.9281 13.0955 65.9281 16.5495C65.9281 20.0475 68.5241 22.5335 72.0441 22.5335C73.7381 22.5335 75.6961 21.8075 76.7081 20.7735L74.5081 18.5515C73.8261 19.1455 72.8141 19.5195 71.9341 19.5195ZM71.9341 13.6235C73.0561 13.6235 73.8261 14.3055 74.1341 15.3395H69.5141C69.9101 14.2835 70.8121 13.6235 71.9341 13.6235ZM85.2396 22.5335C87.2416 22.5335 88.8256 21.7195 89.9476 20.4435L87.4836 18.4195C86.9556 19.0135 86.0756 19.4315 85.2616 19.4315C83.7876 19.4315 82.5336 18.1115 82.5336 16.5495C82.5336 15.0315 83.7876 13.7335 85.2616 13.7335C86.0536 13.7335 86.9116 14.1515 87.4176 14.7015L89.8816 12.6555C88.7816 11.4235 87.2196 10.6315 85.2836 10.6315C81.8516 10.6315 78.9476 13.3375 78.9476 16.5715C78.9476 19.8055 81.8296 22.5335 85.2396 22.5335ZM98.6553 10.6315C97.2253 10.6315 96.0373 11.2255 95.3333 12.1715V6.89153H91.5933V22.2695H95.3333V15.7135C95.3333 14.5915 96.1913 13.7335 97.3353 13.7335C98.4793 13.7335 99.2713 14.6135 99.2713 15.8675V22.2695H102.835V15.0315C102.835 12.4575 101.097 10.6315 98.6553 10.6315ZM112.319 10.6315C110.889 10.6315 109.679 11.2255 108.975 12.1935V10.8955H105.257V22.2695H108.975V15.6475L108.997 15.7135C108.997 14.5915 109.855 13.7335 110.999 13.7335C112.143 13.7335 112.935 14.6135 112.935 15.8675V22.2695H116.499V15.0315C116.499 12.4575 114.761 10.6315 112.319 10.6315ZM120.879 9.50953C121.957 9.50953 122.815 8.60753 122.815 7.52953C122.815 6.49553 121.957 5.59353 120.879 5.59353C119.779 5.59353 118.899 6.49553 118.899 7.52953C118.899 8.60753 119.779 9.50953 120.879 9.50953ZM118.987 22.2695H122.705V10.8955H118.987V22.2695ZM131.001 22.5335C133.003 22.5335 134.587 21.7195 135.709 20.4435L133.245 18.4195C132.717 19.0135 131.837 19.4315 131.023 19.4315C129.549 19.4315 128.295 18.1115 128.295 16.5495C128.295 15.0315 129.549 13.7335 131.023 13.7335C131.815 13.7335 132.673 14.1515 133.179 14.7015L135.643 12.6555C134.543 11.4235 132.981 10.6315 131.045 10.6315C127.613 10.6315 124.709 13.3375 124.709 16.5715C124.709 19.8055 127.591 22.5335 131.001 22.5335ZM142.679 10.6315C140.919 10.6315 139.291 11.1375 137.707 11.9295L138.873 14.2615C139.841 13.7555 140.655 13.4255 141.733 13.4255C143.295 13.4255 144.219 14.3055 144.219 15.5155V15.6695C143.339 15.3175 142.393 15.1195 141.557 15.1195C138.873 15.1195 136.739 16.6815 136.739 18.9035C136.739 21.0595 138.653 22.5335 141.073 22.5335C142.239 22.5335 143.427 22.0935 144.219 21.3015V22.2695H147.805V15.5155C147.805 12.4795 145.605 10.6315 142.679 10.6315ZM141.975 20.2455C140.985 20.2455 140.281 19.6735 140.281 18.7935C140.281 17.9135 141.073 17.2755 142.085 17.2755C142.855 17.2755 143.647 17.4295 144.219 17.6495V18.8595C144.065 19.7175 143.075 20.2455 141.975 20.2455ZM150.269 22.2695H154.009V6.89153H150.269V22.2695Z" fill="#37357E"/>
<path d="M92.6738 31.1133C92.6738 31.166 92.665 31.2305 92.6475 31.3066C92.6357 31.377 92.6152 31.4473 92.5859 31.5176C92.5566 31.582 92.5215 31.6377 92.4805 31.6846C92.4453 31.7314 92.4072 31.7549 92.3662 31.7549C92.2959 31.7549 92.2139 31.7256 92.1201 31.667C92.0322 31.6084 91.918 31.5439 91.7773 31.4736C91.6426 31.3975 91.4756 31.3301 91.2764 31.2715C91.083 31.2129 90.8486 31.1836 90.5732 31.1836C90.2861 31.1836 90.0312 31.2275 89.8086 31.3154C89.5859 31.3975 89.3984 31.5117 89.2461 31.6582C89.0996 31.7988 88.9883 31.9629 88.9121 32.1504C88.8359 32.332 88.7979 32.5195 88.7979 32.7129C88.7979 32.9707 88.877 33.1875 89.0352 33.3633C89.1934 33.5332 89.3926 33.6855 89.6328 33.8203C89.873 33.9492 90.1309 34.0752 90.4062 34.1982C90.6875 34.3213 90.9482 34.4678 91.1885 34.6377C91.4287 34.8076 91.6279 35.0127 91.7861 35.2529C91.9443 35.4873 92.0234 35.7861 92.0234 36.1494C92.0234 36.5479 91.9443 36.917 91.7861 37.2568C91.6338 37.5908 91.4111 37.8809 91.1182 38.127C90.8311 38.373 90.4824 38.5664 90.0723 38.707C89.668 38.8418 89.2168 38.9092 88.7188 38.9092C88.4492 38.9092 88.1943 38.8857 87.9541 38.8389C87.7197 38.7979 87.5059 38.7451 87.3125 38.6807C87.1191 38.6162 86.9521 38.543 86.8115 38.4609C86.6709 38.3789 86.5625 38.2998 86.4863 38.2236C86.4395 38.1768 86.4043 38.1299 86.3809 38.083C86.3633 38.0361 86.3545 37.9805 86.3545 37.916C86.3545 37.8691 86.3574 37.8193 86.3633 37.7666C86.3691 37.7139 86.3779 37.6611 86.3896 37.6084C86.4072 37.5557 86.4248 37.5059 86.4424 37.459C86.46 37.4121 86.4805 37.3711 86.5039 37.3359C86.5273 37.2949 86.5508 37.2656 86.5742 37.248C86.6035 37.2246 86.6328 37.2129 86.6621 37.2129C86.7324 37.2129 86.8174 37.2539 86.917 37.3359C87.0166 37.418 87.1455 37.5088 87.3037 37.6084C87.4678 37.7021 87.6729 37.79 87.9189 37.8721C88.165 37.9541 88.4697 37.9951 88.833 37.9951C89.1963 37.9951 89.5098 37.9512 89.7734 37.8633C90.0371 37.7695 90.2539 37.6465 90.4238 37.4941C90.5996 37.3418 90.7285 37.166 90.8105 36.9668C90.8926 36.7676 90.9336 36.5566 90.9336 36.334C90.9336 36.0645 90.8545 35.8447 90.6963 35.6748C90.5381 35.5049 90.3389 35.3525 90.0986 35.2178C89.8584 35.083 89.5977 34.9541 89.3164 34.8311C89.041 34.708 88.7832 34.5645 88.543 34.4004C88.3027 34.2305 88.1035 34.0283 87.9453 33.7939C87.7871 33.5537 87.708 33.249 87.708 32.8799C87.708 32.5049 87.7812 32.1592 87.9277 31.8428C88.0742 31.5264 88.2793 31.2539 88.543 31.0254C88.8066 30.7969 89.1201 30.6211 89.4834 30.498C89.8525 30.3691 90.2539 30.3047 90.6875 30.3047C90.8926 30.3047 91.0947 30.3223 91.2939 30.3574C91.4932 30.3867 91.6748 30.4277 91.8389 30.4805C92.0088 30.5332 92.1582 30.5947 92.2871 30.665C92.416 30.7295 92.5127 30.7939 92.5771 30.8584C92.6416 30.917 92.6738 31.002 92.6738 31.1133ZM100.109 38.584C100.098 38.6191 100.08 38.6514 100.057 38.6807C100.039 38.71 100.007 38.7334 99.96 38.751C99.9189 38.7686 99.8633 38.7832 99.793 38.7949C99.7285 38.8066 99.6436 38.8125 99.5381 38.8125C99.4385 38.8125 99.3564 38.8066 99.292 38.7949C99.2275 38.7832 99.1777 38.7686 99.1426 38.751C99.1074 38.7334 99.084 38.71 99.0723 38.6807C99.0605 38.6514 99.0576 38.6191 99.0635 38.584L100.065 33.5918C100.095 33.4277 100.121 33.2402 100.145 33.0293C100.168 32.8184 100.18 32.6367 100.18 32.4844C100.18 32.291 100.159 32.1152 100.118 31.957C100.077 31.7988 100.01 31.6641 99.916 31.5527C99.8281 31.4355 99.7109 31.3447 99.5645 31.2803C99.418 31.2158 99.2422 31.1836 99.0371 31.1836C98.6855 31.1836 98.3311 31.2832 97.9736 31.4824C97.6162 31.6758 97.2822 31.9482 96.9717 32.2998C96.667 32.6455 96.3945 33.0586 96.1543 33.5391C95.9141 34.0137 95.7383 34.5322 95.627 35.0947L94.9326 38.584C94.9209 38.6191 94.9033 38.6514 94.8799 38.6807C94.8623 38.71 94.8301 38.7334 94.7832 38.751C94.7422 38.7686 94.6865 38.7832 94.6162 38.7949C94.5459 38.8066 94.4609 38.8125 94.3613 38.8125C94.2559 38.8125 94.1709 38.8066 94.1064 38.7949C94.042 38.7832 93.9922 38.7686 93.957 38.751C93.9219 38.7334 93.8984 38.71 93.8867 38.6807C93.875 38.6514 93.875 38.6191 93.8867 38.584L96.251 26.7363C96.2568 26.7012 96.2686 26.6689 96.2861 26.6396C96.3096 26.6104 96.3418 26.5869 96.3828 26.5693C96.4297 26.5459 96.4883 26.5312 96.5586 26.5254C96.6289 26.5137 96.7168 26.5078 96.8223 26.5078C96.9219 26.5078 97.0039 26.5137 97.0684 26.5254C97.1328 26.5312 97.1826 26.5459 97.2178 26.5693C97.2529 26.5869 97.2734 26.6104 97.2793 26.6396C97.291 26.6689 97.2939 26.7012 97.2881 26.7363L96.541 30.5332C96.5059 30.6973 96.4678 30.8643 96.4268 31.0342C96.3857 31.1982 96.3418 31.3594 96.2949 31.5176C96.248 31.6758 96.2041 31.8281 96.1631 31.9746C96.1221 32.1152 96.084 32.2383 96.0488 32.3438C96.1367 32.1328 96.2803 31.9102 96.4795 31.6758C96.6846 31.4355 96.9277 31.2158 97.209 31.0166C97.4902 30.8115 97.8008 30.6416 98.1406 30.5068C98.4863 30.3721 98.8438 30.3047 99.2129 30.3047C99.5762 30.3047 99.8838 30.3574 100.136 30.4629C100.394 30.5684 100.604 30.7148 100.769 30.9023C100.933 31.084 101.05 31.3037 101.12 31.5615C101.196 31.8135 101.234 32.0889 101.234 32.3877C101.234 32.5928 101.223 32.7949 101.199 32.9941C101.176 33.1875 101.144 33.3867 101.103 33.5918L100.109 38.584ZM109.188 38.584C109.171 38.666 109.124 38.7246 109.048 38.7598C108.972 38.7949 108.843 38.8125 108.661 38.8125C108.573 38.8125 108.5 38.8066 108.441 38.7949C108.389 38.7891 108.345 38.7773 108.31 38.7598C108.274 38.7422 108.251 38.7188 108.239 38.6895C108.228 38.6602 108.228 38.625 108.239 38.584L108.564 36.9492C108.488 37.1426 108.351 37.3535 108.151 37.582C107.952 37.8105 107.712 38.0244 107.431 38.2236C107.155 38.417 106.848 38.5811 106.508 38.7158C106.168 38.8447 105.822 38.9092 105.471 38.9092C104.996 38.9092 104.606 38.8271 104.302 38.6631C103.997 38.499 103.757 38.2852 103.581 38.0215C103.405 37.752 103.285 37.4531 103.221 37.125C103.156 36.791 103.124 36.457 103.124 36.123C103.124 35.8184 103.153 35.4639 103.212 35.0596C103.271 34.6494 103.367 34.2305 103.502 33.8027C103.637 33.3691 103.81 32.9443 104.021 32.5283C104.231 32.1123 104.489 31.7402 104.794 31.4121C105.104 31.0781 105.462 30.8115 105.866 30.6123C106.276 30.4072 106.742 30.3047 107.264 30.3047C107.809 30.3047 108.266 30.4131 108.635 30.6299C109.004 30.8408 109.338 31.1279 109.637 31.4912L109.821 30.6299C109.839 30.5479 109.889 30.4893 109.971 30.4541C110.059 30.4189 110.188 30.4014 110.357 30.4014C110.445 30.4014 110.519 30.4072 110.577 30.4189C110.636 30.4248 110.68 30.4395 110.709 30.4629C110.744 30.4805 110.765 30.5039 110.771 30.5332C110.782 30.5625 110.785 30.5947 110.779 30.6299L109.188 38.584ZM109.364 32.5547C109.048 32.1035 108.711 31.7666 108.354 31.5439C108.002 31.3154 107.606 31.2012 107.167 31.2012C106.815 31.2012 106.496 31.2861 106.209 31.4561C105.928 31.6201 105.679 31.8398 105.462 32.1152C105.245 32.3848 105.058 32.6924 104.899 33.0381C104.747 33.3838 104.621 33.7383 104.521 34.1016C104.422 34.459 104.349 34.8105 104.302 35.1562C104.255 35.502 104.231 35.8066 104.231 36.0703C104.231 36.293 104.249 36.5186 104.284 36.7471C104.319 36.9756 104.387 37.1836 104.486 37.3711C104.592 37.5586 104.735 37.7139 104.917 37.8369C105.099 37.9541 105.336 38.0127 105.629 38.0127C105.98 38.0127 106.335 37.9189 106.692 37.7314C107.05 37.5381 107.381 37.2715 107.686 36.9316C107.996 36.5859 108.269 36.1787 108.503 35.71C108.743 35.2354 108.922 34.7139 109.039 34.1455L109.364 32.5547ZM117.951 30.709C117.951 30.7266 117.948 30.7588 117.942 30.8057C117.937 30.8525 117.928 30.9053 117.916 30.9639C117.91 31.0225 117.898 31.084 117.881 31.1484C117.863 31.2129 117.84 31.2715 117.811 31.3242C117.787 31.377 117.761 31.4209 117.731 31.4561C117.702 31.4912 117.667 31.5088 117.626 31.5088C117.585 31.5088 117.535 31.4971 117.477 31.4736C117.424 31.4502 117.359 31.4238 117.283 31.3945C117.213 31.3652 117.131 31.3389 117.037 31.3154C116.943 31.292 116.835 31.2803 116.712 31.2803C116.507 31.2803 116.264 31.374 115.982 31.5615C115.707 31.749 115.429 32.0098 115.147 32.3438C114.872 32.6777 114.617 33.0762 114.383 33.5391C114.154 34.002 113.984 34.5088 113.873 35.0596L113.179 38.584C113.167 38.6191 113.149 38.6514 113.126 38.6807C113.108 38.71 113.076 38.7334 113.029 38.751C112.988 38.7686 112.933 38.7832 112.862 38.7949C112.792 38.8066 112.707 38.8125 112.607 38.8125C112.502 38.8125 112.417 38.8066 112.353 38.7949C112.288 38.7832 112.238 38.7686 112.203 38.751C112.168 38.7334 112.145 38.71 112.133 38.6807C112.121 38.6514 112.121 38.6191 112.133 38.584L113.715 30.6299C113.721 30.5947 113.735 30.5625 113.759 30.5332C113.782 30.5039 113.814 30.4805 113.855 30.4629C113.902 30.4395 113.958 30.4248 114.022 30.4189C114.087 30.4072 114.163 30.4014 114.251 30.4014C114.339 30.4014 114.412 30.4072 114.471 30.4189C114.529 30.4248 114.573 30.4395 114.603 30.4629C114.638 30.4805 114.658 30.5039 114.664 30.5332C114.676 30.5625 114.679 30.5947 114.673 30.6299L114.365 32.1768C114.494 31.9365 114.652 31.7051 114.84 31.4824C115.027 31.2539 115.229 31.0547 115.446 30.8848C115.669 30.709 115.9 30.5684 116.141 30.4629C116.387 30.3574 116.63 30.3047 116.87 30.3047C116.976 30.3047 117.081 30.3135 117.187 30.3311C117.298 30.3428 117.4 30.3604 117.494 30.3838C117.588 30.4014 117.67 30.4248 117.74 30.4541C117.811 30.4834 117.863 30.5156 117.898 30.5508C117.934 30.5801 117.951 30.6328 117.951 30.709ZM125.448 32.1943C125.448 32.5869 125.354 32.9414 125.167 33.2578C124.985 33.5684 124.695 33.835 124.297 34.0576C123.898 34.2803 123.389 34.4531 122.768 34.5762C122.146 34.6934 121.399 34.752 120.526 34.752H119.516C119.475 34.9746 119.445 35.1914 119.428 35.4023C119.41 35.6133 119.401 35.8096 119.401 35.9912C119.401 36.6357 119.557 37.1338 119.867 37.4854C120.184 37.8369 120.696 38.0127 121.405 38.0127C121.774 38.0127 122.105 37.9863 122.398 37.9336C122.691 37.875 122.943 37.8135 123.154 37.749C123.371 37.6846 123.544 37.626 123.673 37.5732C123.808 37.5146 123.898 37.4854 123.945 37.4854C123.992 37.4854 124.024 37.5059 124.042 37.5469C124.065 37.582 124.077 37.6289 124.077 37.6875C124.077 37.7227 124.071 37.7695 124.06 37.8281C124.054 37.8809 124.042 37.9395 124.024 38.0039C124.007 38.0625 123.983 38.124 123.954 38.1885C123.925 38.2471 123.89 38.2969 123.849 38.3379C123.778 38.4082 123.655 38.4785 123.479 38.5488C123.31 38.6133 123.107 38.6719 122.873 38.7246C122.639 38.7773 122.384 38.8213 122.108 38.8564C121.833 38.8916 121.561 38.9092 121.291 38.9092C120.787 38.9092 120.348 38.8506 119.973 38.7334C119.598 38.6104 119.284 38.4287 119.032 38.1885C118.786 37.9482 118.602 37.6494 118.479 37.292C118.355 36.9287 118.294 36.5068 118.294 36.0264C118.294 35.6514 118.329 35.25 118.399 34.8223C118.476 34.3887 118.59 33.9609 118.742 33.5391C118.9 33.1113 119.103 32.7041 119.349 32.3174C119.595 31.9248 119.888 31.582 120.228 31.2891C120.567 30.9902 120.96 30.7529 121.405 30.5771C121.851 30.3955 122.352 30.3047 122.908 30.3047C123.371 30.3047 123.764 30.3662 124.086 30.4893C124.408 30.6064 124.669 30.7588 124.868 30.9463C125.073 31.1279 125.22 31.3301 125.308 31.5527C125.401 31.7754 125.448 31.9893 125.448 32.1943ZM124.341 32.3086C124.341 31.9746 124.209 31.708 123.945 31.5088C123.682 31.3037 123.31 31.2012 122.829 31.2012C122.407 31.2012 122.029 31.2744 121.695 31.4209C121.367 31.5674 121.077 31.7637 120.825 32.0098C120.573 32.2559 120.356 32.543 120.175 32.8711C119.999 33.1934 119.855 33.5332 119.744 33.8906H120.72C121.423 33.8906 122.006 33.8496 122.469 33.7676C122.932 33.6797 123.301 33.5625 123.576 33.416C123.857 33.2695 124.054 33.1025 124.165 32.915C124.282 32.7217 124.341 32.5195 124.341 32.3086Z" fill="#FD5513"/>
</g>
<defs>
<clipPath id="clip0_775_20166">
<rect width="156" height="47" fill="white"/>
</clipPath>
</defs>
</svg>
