<svg width="261" height="75" viewBox="0 0 261 75" fill="none" xmlns="http://www.w3.org/2000/svg">
<path d="M36.85 72.12C56.7654 72.12 72.91 55.9754 72.91 36.06C72.91 16.1446 56.7654 0 36.85 0C16.9346 0 0.790039 16.1446 0.790039 36.06C0.790039 55.9754 16.9346 72.12 36.85 72.12Z" fill="#FFE2DE"/>
<path d="M30.58 42.1906C30.58 42.1906 18.12 38.8106 11.71 61.1206C11.71 61.1206 32.05 57.4306 30.58 42.1906Z" fill="#FD5513" stroke="white" stroke-width="3" stroke-miterlimit="10"/>
<path d="M37.8504 53.4297L28.9104 58.8697C28.8326 61.359 28.1823 63.7968 27.01 65.9941C25.8376 68.1914 24.1748 70.089 22.1504 71.5397C22.1504 71.5397 39.6504 71.7997 37.8504 53.4297Z" fill="#37357E" stroke="white" stroke-width="3" stroke-miterlimit="10"/>
<path d="M19.6002 35.1807L14.1702 44.1207C11.6813 44.2 9.24393 44.8509 7.04688 46.0231C4.84982 47.1954 2.95197 48.8574 1.50022 50.8807C1.50022 50.8807 1.23022 33.3807 19.6002 35.1807Z" fill="#37357E" stroke="white" stroke-width="3" stroke-miterlimit="10"/>
<path d="M62.14 10.8188V10.7188V10.7688C32.96 7.60882 14.67 44.7688 14.67 44.7688C13.51 46.7688 16.18 48.7088 16.18 48.7088C23.92 39.0988 30.64 41.5388 31.18 41.7688C31.41 42.3288 33.85 49.0488 24.24 56.7688C24.24 56.7688 26.14 59.4388 28.18 58.2788C28.15 58.2888 65.3 39.9988 62.14 10.8188Z" fill="#FD5513" stroke="white" stroke-width="3" stroke-miterlimit="10"/>
<path d="M62.1901 10.9414L53.1901 11.3114C53.1901 11.3114 52.3001 21.2414 61.5601 19.6814L62.1901 10.9414Z" fill="#37357E" stroke="white" stroke-width="3" stroke-miterlimit="10"/>
<path d="M44.1099 34.7394C47.3905 34.7394 50.0499 32.0799 50.0499 28.7994C50.0499 25.5188 47.3905 22.8594 44.1099 22.8594C40.8294 22.8594 38.1699 25.5188 38.1699 28.7994C38.1699 32.0799 40.8294 34.7394 44.1099 34.7394Z" fill="#37357E" stroke="white" stroke-width="3" stroke-miterlimit="10"/>
<path d="M89.8479 39.6602H96.3459V19.3682H104.25V13.5542H81.9059V19.3682H89.8479V39.6602ZM116.813 34.9102C114.723 34.9102 113.165 33.5802 112.557 31.6042H126.579C126.579 24.1182 122.931 19.5582 116.699 19.5582C110.771 19.5582 106.439 23.8142 106.439 29.7802C106.439 35.8222 110.923 40.1162 117.003 40.1162C119.929 40.1162 123.311 38.8622 125.059 37.0762L121.259 33.2382C120.081 34.2642 118.333 34.9102 116.813 34.9102ZM116.813 24.7262C118.751 24.7262 120.081 25.9042 120.613 27.6902H112.633C113.317 25.8662 114.875 24.7262 116.813 24.7262ZM139.795 40.1162C143.253 40.1162 145.989 38.7102 147.927 36.5062L143.671 33.0102C142.759 34.0362 141.239 34.7582 139.833 34.7582C137.287 34.7582 135.121 32.4782 135.121 29.7802C135.121 27.1582 137.287 24.9162 139.833 24.9162C141.201 24.9162 142.683 25.6382 143.557 26.5882L147.813 23.0542C145.913 20.9262 143.215 19.5582 139.871 19.5582C133.943 19.5582 128.927 24.2322 128.927 29.8182C128.927 35.4042 133.905 40.1162 139.795 40.1162ZM162.968 19.5582C160.498 19.5582 158.446 20.5842 157.23 22.2182V13.0982H150.77V39.6602H157.23V28.3362C157.23 26.3982 158.712 24.9162 160.688 24.9162C162.664 24.9162 164.032 26.4362 164.032 28.6022V39.6602H170.188V27.1582C170.188 22.7122 167.186 19.5582 162.968 19.5582ZM186.569 19.5582C184.099 19.5582 182.009 20.5842 180.793 22.2562V20.0142H174.371V39.6602H180.793V28.2222L180.831 28.3362C180.831 26.3982 182.313 24.9162 184.289 24.9162C186.265 24.9162 187.633 26.4362 187.633 28.6022V39.6602H193.789V27.1582C193.789 22.7122 190.787 19.5582 186.569 19.5582ZM201.355 17.6202C203.217 17.6202 204.699 16.0622 204.699 14.2002C204.699 12.4142 203.217 10.8562 201.355 10.8562C199.455 10.8562 197.935 12.4142 197.935 14.2002C197.935 16.0622 199.455 17.6202 201.355 17.6202ZM198.087 39.6602H204.509V20.0142H198.087V39.6602ZM218.838 40.1162C222.296 40.1162 225.032 38.7102 226.97 36.5062L222.714 33.0102C221.802 34.0362 220.282 34.7582 218.876 34.7582C216.33 34.7582 214.164 32.4782 214.164 29.7802C214.164 27.1582 216.33 24.9162 218.876 24.9162C220.244 24.9162 221.726 25.6382 222.6 26.5882L226.856 23.0542C224.956 20.9262 222.258 19.5582 218.914 19.5582C212.986 19.5582 207.97 24.2322 207.97 29.8182C207.97 35.4042 212.948 40.1162 218.838 40.1162ZM239.009 19.5582C235.969 19.5582 233.157 20.4322 230.421 21.8002L232.435 25.8282C234.107 24.9542 235.513 24.3842 237.375 24.3842C240.073 24.3842 241.669 25.9042 241.669 27.9942V28.2602C240.149 27.6522 238.515 27.3102 237.071 27.3102C232.435 27.3102 228.749 30.0082 228.749 33.8462C228.749 37.5702 232.055 40.1162 236.235 40.1162C238.249 40.1162 240.301 39.3562 241.669 37.9882V39.6602H247.863V27.9942C247.863 22.7502 244.063 19.5582 239.009 19.5582ZM237.793 36.1642C236.083 36.1642 234.867 35.1762 234.867 33.6562C234.867 32.1362 236.235 31.0342 237.983 31.0342C239.313 31.0342 240.681 31.3002 241.669 31.6802V33.7702C241.403 35.2522 239.693 36.1642 237.793 36.1642ZM252.118 39.6602H258.578V13.0982H252.118V39.6602Z" fill="#37357E"/>
<path d="M149.51 53.1318C149.51 53.2344 149.493 53.3597 149.458 53.5078C149.436 53.6445 149.396 53.7812 149.339 53.918C149.282 54.0433 149.214 54.1515 149.134 54.2427C149.065 54.3338 148.991 54.3794 148.912 54.3794C148.775 54.3794 148.615 54.3224 148.433 54.2085C148.262 54.0946 148.04 53.9692 147.767 53.8325C147.505 53.6844 147.18 53.5534 146.792 53.4395C146.417 53.3255 145.961 53.2686 145.425 53.2686C144.867 53.2686 144.371 53.354 143.938 53.5249C143.506 53.6844 143.141 53.9066 142.845 54.1914C142.56 54.4648 142.343 54.7839 142.195 55.1484C142.047 55.5016 141.973 55.8662 141.973 56.2422C141.973 56.7435 142.127 57.165 142.435 57.5068C142.742 57.8372 143.13 58.1335 143.597 58.3955C144.064 58.6462 144.565 58.8911 145.101 59.1304C145.647 59.3696 146.154 59.6545 146.622 59.9849C147.089 60.3153 147.476 60.714 147.784 61.1812C148.091 61.6369 148.245 62.2179 148.245 62.9243C148.245 63.6991 148.091 64.4168 147.784 65.0776C147.487 65.7271 147.055 66.291 146.485 66.7695C145.927 67.248 145.249 67.624 144.451 67.8975C143.665 68.1595 142.788 68.2905 141.819 68.2905C141.295 68.2905 140.8 68.245 140.333 68.1538C139.877 68.0741 139.461 67.9715 139.085 67.8462C138.709 67.7209 138.384 67.5785 138.111 67.4189C137.837 67.2594 137.627 67.1056 137.479 66.9575C137.387 66.8664 137.319 66.7752 137.273 66.6841C137.239 66.5929 137.222 66.4847 137.222 66.3594C137.222 66.2682 137.228 66.1714 137.239 66.0688C137.251 65.9663 137.268 65.8638 137.291 65.7612C137.325 65.6587 137.359 65.5618 137.393 65.4707C137.427 65.3796 137.467 65.2998 137.513 65.2314C137.558 65.1517 137.604 65.0947 137.649 65.0605C137.706 65.015 137.763 64.9922 137.82 64.9922C137.957 64.9922 138.122 65.0719 138.316 65.2314C138.51 65.391 138.76 65.5675 139.068 65.7612C139.387 65.9435 139.786 66.1144 140.264 66.2739C140.743 66.4334 141.335 66.5132 142.042 66.5132C142.748 66.5132 143.357 66.4277 143.87 66.2568C144.383 66.0745 144.804 65.8353 145.135 65.5391C145.477 65.2428 145.727 64.901 145.887 64.5137C146.046 64.1263 146.126 63.7161 146.126 63.2832C146.126 62.7591 145.972 62.3319 145.665 62.0015C145.357 61.6711 144.97 61.3748 144.502 61.1128C144.035 60.8507 143.528 60.6001 142.981 60.3608C142.446 60.1216 141.945 59.8424 141.478 59.5234C141.01 59.193 140.623 58.8 140.315 58.3442C140.008 57.8771 139.854 57.2847 139.854 56.5669C139.854 55.8377 139.996 55.1655 140.281 54.5503C140.566 53.9351 140.965 53.4053 141.478 52.9609C141.99 52.5166 142.6 52.1748 143.306 51.9355C144.024 51.6849 144.804 51.5596 145.647 51.5596C146.046 51.5596 146.439 51.5938 146.827 51.6621C147.214 51.7191 147.567 51.7988 147.886 51.9014C148.217 52.0039 148.507 52.1235 148.758 52.2603C149.008 52.3856 149.196 52.5109 149.322 52.6362C149.447 52.7502 149.51 52.9154 149.51 53.1318ZM163.968 67.6582C163.945 67.7266 163.911 67.7892 163.865 67.8462C163.831 67.9032 163.768 67.9487 163.677 67.9829C163.597 68.0171 163.489 68.0456 163.353 68.0684C163.227 68.0911 163.062 68.1025 162.857 68.1025C162.663 68.1025 162.504 68.0911 162.378 68.0684C162.253 68.0456 162.156 68.0171 162.088 67.9829C162.02 67.9487 161.974 67.9032 161.951 67.8462C161.928 67.7892 161.923 67.7266 161.934 67.6582L163.882 57.9512C163.939 57.6322 163.991 57.2676 164.036 56.8574C164.082 56.4473 164.104 56.0941 164.104 55.7979C164.104 55.4219 164.065 55.0801 163.985 54.7725C163.905 54.4648 163.774 54.2028 163.592 53.9863C163.421 53.7585 163.193 53.5819 162.908 53.4565C162.623 53.3312 162.282 53.2686 161.883 53.2686C161.199 53.2686 160.51 53.4622 159.815 53.8496C159.12 54.2256 158.471 54.7554 157.867 55.439C157.274 56.1112 156.744 56.9144 156.277 57.8486C155.81 58.7715 155.468 59.7798 155.252 60.8735L153.902 67.6582C153.879 67.7266 153.845 67.7892 153.799 67.8462C153.765 67.9032 153.702 67.9487 153.611 67.9829C153.532 68.0171 153.423 68.0456 153.287 68.0684C153.15 68.0911 152.985 68.1025 152.791 68.1025C152.586 68.1025 152.421 68.0911 152.295 68.0684C152.17 68.0456 152.073 68.0171 152.005 67.9829C151.937 67.9487 151.891 67.9032 151.868 67.8462C151.845 67.7892 151.845 67.7266 151.868 67.6582L156.465 44.6211C156.477 44.5527 156.5 44.4901 156.534 44.4331C156.579 44.3761 156.642 44.3306 156.722 44.2964C156.813 44.2508 156.927 44.2223 157.063 44.2109C157.2 44.1882 157.371 44.1768 157.576 44.1768C157.77 44.1768 157.929 44.1882 158.055 44.2109C158.18 44.2223 158.277 44.2508 158.345 44.2964C158.414 44.3306 158.453 44.3761 158.465 44.4331C158.488 44.4901 158.493 44.5527 158.482 44.6211L157.029 52.0039C156.961 52.3229 156.887 52.6476 156.807 52.978C156.727 53.297 156.642 53.6104 156.551 53.918C156.46 54.2256 156.374 54.5218 156.294 54.8066C156.215 55.0801 156.141 55.3193 156.072 55.5244C156.243 55.1143 156.522 54.6813 156.91 54.2256C157.308 53.7585 157.781 53.3312 158.328 52.9438C158.875 52.5451 159.479 52.2147 160.14 51.9526C160.812 51.6906 161.507 51.5596 162.225 51.5596C162.931 51.5596 163.529 51.6621 164.019 51.8672C164.52 52.0723 164.931 52.3571 165.25 52.7217C165.569 53.0749 165.796 53.5021 165.933 54.0034C166.081 54.4933 166.155 55.0288 166.155 55.6099C166.155 56.0086 166.132 56.4017 166.087 56.7891C166.041 57.165 165.979 57.5524 165.899 57.9512L163.968 67.6582ZM181.622 67.6582C181.587 67.8177 181.496 67.9316 181.348 68C181.2 68.0684 180.949 68.1025 180.596 68.1025C180.425 68.1025 180.283 68.0911 180.169 68.0684C180.066 68.057 179.981 68.0342 179.913 68C179.844 67.9658 179.799 67.9202 179.776 67.8633C179.753 67.8063 179.753 67.738 179.776 67.6582L180.408 64.4795C180.26 64.8555 179.992 65.2656 179.605 65.71C179.218 66.1543 178.75 66.5701 178.204 66.9575C177.668 67.3335 177.07 67.6525 176.409 67.9146C175.748 68.1652 175.076 68.2905 174.393 68.2905C173.47 68.2905 172.712 68.131 172.12 67.812C171.527 67.493 171.06 67.0771 170.718 66.5645C170.376 66.0404 170.143 65.4593 170.018 64.8213C169.892 64.1719 169.83 63.5225 169.83 62.873C169.83 62.2806 169.887 61.5913 170 60.8052C170.114 60.0076 170.302 59.193 170.564 58.3613C170.826 57.5182 171.163 56.6922 171.573 55.8833C171.983 55.0744 172.484 54.3509 173.077 53.7129C173.681 53.0635 174.375 52.5451 175.162 52.1577C175.959 51.759 176.865 51.5596 177.879 51.5596C178.938 51.5596 179.827 51.7703 180.545 52.1919C181.263 52.6021 181.912 53.1603 182.493 53.8667L182.852 52.1919C182.886 52.0324 182.983 51.9185 183.143 51.8501C183.313 51.7817 183.564 51.7476 183.895 51.7476C184.065 51.7476 184.208 51.759 184.322 51.7817C184.436 51.7931 184.521 51.8216 184.578 51.8672C184.646 51.9014 184.686 51.9469 184.698 52.0039C184.721 52.0609 184.726 52.1235 184.715 52.1919L181.622 67.6582ZM181.963 55.9346C181.348 55.0573 180.693 54.4022 179.998 53.9692C179.314 53.5249 178.545 53.3027 177.691 53.3027C177.007 53.3027 176.386 53.4679 175.828 53.7983C175.281 54.1174 174.797 54.5446 174.375 55.0801C173.954 55.6042 173.589 56.2023 173.282 56.8745C172.986 57.5467 172.741 58.236 172.547 58.9424C172.353 59.6374 172.211 60.321 172.12 60.9932C172.028 61.6654 171.983 62.2578 171.983 62.7705C171.983 63.2035 172.017 63.6421 172.085 64.0864C172.154 64.5308 172.285 64.9352 172.479 65.2998C172.684 65.6644 172.963 65.9663 173.316 66.2056C173.669 66.4334 174.131 66.5474 174.7 66.5474C175.384 66.5474 176.073 66.3651 176.768 66.0005C177.463 65.6245 178.107 65.1061 178.699 64.4453C179.303 63.7731 179.833 62.9813 180.289 62.0698C180.756 61.147 181.103 60.133 181.331 59.0278L181.963 55.9346ZM198.66 52.3457C198.66 52.3799 198.654 52.4425 198.643 52.5337C198.632 52.6248 198.615 52.7274 198.592 52.8413C198.58 52.9552 198.558 53.0749 198.523 53.2002C198.489 53.3255 198.444 53.4395 198.387 53.542C198.341 53.6445 198.29 53.73 198.233 53.7983C198.176 53.8667 198.108 53.9009 198.028 53.9009C197.948 53.9009 197.851 53.8781 197.737 53.8325C197.635 53.7869 197.509 53.7357 197.361 53.6787C197.225 53.6217 197.065 53.5705 196.883 53.5249C196.701 53.4793 196.49 53.4565 196.25 53.4565C195.852 53.4565 195.379 53.6388 194.832 54.0034C194.297 54.368 193.755 54.875 193.208 55.5244C192.673 56.1738 192.177 56.9486 191.722 57.8486C191.277 58.7487 190.947 59.7342 190.73 60.8052L189.38 67.6582C189.358 67.7266 189.323 67.7892 189.278 67.8462C189.244 67.9032 189.181 67.9487 189.09 67.9829C189.01 68.0171 188.902 68.0456 188.765 68.0684C188.628 68.0911 188.463 68.1025 188.27 68.1025C188.064 68.1025 187.899 68.0911 187.774 68.0684C187.649 68.0456 187.552 68.0171 187.483 67.9829C187.415 67.9487 187.369 67.9032 187.347 67.8462C187.324 67.7892 187.324 67.7266 187.347 67.6582L190.423 52.1919C190.434 52.1235 190.463 52.0609 190.508 52.0039C190.554 51.9469 190.617 51.9014 190.696 51.8672C190.787 51.8216 190.896 51.7931 191.021 51.7817C191.146 51.759 191.294 51.7476 191.465 51.7476C191.636 51.7476 191.779 51.759 191.893 51.7817C192.007 51.7931 192.092 51.8216 192.149 51.8672C192.217 51.9014 192.257 51.9469 192.269 52.0039C192.291 52.0609 192.297 52.1235 192.286 52.1919L191.688 55.1997C191.938 54.7326 192.246 54.2826 192.61 53.8496C192.975 53.4053 193.368 53.0179 193.79 52.6875C194.222 52.3457 194.673 52.0723 195.14 51.8672C195.618 51.6621 196.091 51.5596 196.558 51.5596C196.763 51.5596 196.968 51.5767 197.173 51.6108C197.39 51.6336 197.589 51.6678 197.771 51.7134C197.954 51.7476 198.113 51.7931 198.25 51.8501C198.387 51.9071 198.489 51.9697 198.558 52.0381C198.626 52.0951 198.66 52.1976 198.66 52.3457ZM213.238 55.2339C213.238 55.9972 213.056 56.6865 212.691 57.3018C212.338 57.9056 211.774 58.424 210.999 58.8569C210.224 59.2899 209.233 59.626 208.025 59.8652C206.818 60.0931 205.365 60.207 203.667 60.207H201.702C201.622 60.64 201.565 61.0615 201.531 61.4717C201.497 61.8818 201.48 62.2635 201.48 62.6167C201.48 63.87 201.782 64.8384 202.386 65.522C203.001 66.2056 203.998 66.5474 205.376 66.5474C206.094 66.5474 206.738 66.4961 207.308 66.3936C207.877 66.2796 208.367 66.16 208.777 66.0347C209.199 65.9093 209.535 65.7954 209.786 65.6929C210.048 65.5789 210.224 65.522 210.315 65.522C210.407 65.522 210.469 65.5618 210.503 65.6416C210.549 65.71 210.572 65.8011 210.572 65.915C210.572 65.9834 210.56 66.0745 210.538 66.1885C210.526 66.291 210.503 66.4049 210.469 66.5303C210.435 66.6442 210.389 66.7638 210.333 66.8892C210.276 67.0031 210.207 67.0999 210.127 67.1797C209.991 67.3164 209.751 67.4531 209.41 67.5898C209.079 67.7152 208.686 67.8291 208.23 67.9316C207.775 68.0342 207.279 68.1196 206.744 68.188C206.208 68.2563 205.678 68.2905 205.154 68.2905C204.174 68.2905 203.32 68.1766 202.591 67.9487C201.862 67.7095 201.252 67.3563 200.762 66.8892C200.284 66.422 199.925 65.841 199.686 65.146C199.446 64.4396 199.327 63.6193 199.327 62.6851C199.327 61.9559 199.395 61.1755 199.532 60.3438C199.68 59.5007 199.902 58.6689 200.198 57.8486C200.506 57.0169 200.899 56.2251 201.377 55.4731C201.856 54.7098 202.426 54.0433 203.086 53.4736C203.747 52.8926 204.511 52.4312 205.376 52.0894C206.242 51.7362 207.216 51.5596 208.299 51.5596C209.199 51.5596 209.962 51.6792 210.589 51.9185C211.215 52.1463 211.722 52.4425 212.11 52.8071C212.509 53.1603 212.793 53.5534 212.964 53.9863C213.147 54.4193 213.238 54.8351 213.238 55.2339ZM211.084 55.4561C211.084 54.8066 210.828 54.2882 210.315 53.9009C209.803 53.5021 209.079 53.3027 208.145 53.3027C207.325 53.3027 206.59 53.4451 205.94 53.73C205.302 54.0148 204.738 54.3965 204.249 54.875C203.759 55.3535 203.337 55.9118 202.984 56.5498C202.642 57.1764 202.363 57.8372 202.146 58.5322H204.043C205.411 58.5322 206.544 58.4525 207.444 58.293C208.344 58.1221 209.062 57.8942 209.598 57.6094C210.145 57.3245 210.526 56.9998 210.743 56.6353C210.971 56.2593 211.084 55.8662 211.084 55.4561Z" fill="#FD5513"/>
</svg>
