<svg width="35" height="20" viewBox="0 0 35 20" fill="none" xmlns="http://www.w3.org/2000/svg">
<path d="M19.6989 10.0987C19.6989 15.4241 15.3685 19.7423 10.0242 19.7423C8.75563 19.744 7.49918 19.4959 6.32656 19.0122C5.15394 18.5285 4.08811 17.8186 3.18993 16.9231C2.29174 16.0276 1.57879 14.964 1.09179 13.7931C0.604779 12.6222 0.353251 11.3668 0.351562 10.0987C0.351563 4.77114 4.68194 0.45509 10.0242 0.45509C11.2929 0.453118 12.5496 0.70101 13.7224 1.18461C14.8953 1.6682 15.9614 2.37803 16.8598 3.27355C17.7582 4.16907 18.4713 5.23274 18.9585 6.40382C19.4456 7.57489 19.6972 8.83042 19.6989 10.0987ZM30.3105 10.0987C30.3105 15.1134 28.1453 19.1766 25.4742 19.1766C22.8031 19.1766 20.6379 15.1112 20.6379 10.0987C20.6379 5.08403 22.8031 1.02085 25.4742 1.02085C28.1453 1.02085 30.3105 5.08617 30.3105 10.0987ZM34.6516 10.0987C34.6516 14.5905 33.8905 18.2315 32.9494 18.2315C32.0105 18.2315 31.2494 14.5883 31.2494 10.0987C31.2494 5.60693 32.0105 1.96592 32.9516 1.96592C33.8905 1.96592 34.6516 5.60693 34.6516 10.0987Z" fill="black"/>
</svg>
