<svg width="48" height="48" viewBox="0 0 48 48" fill="none" xmlns="http://www.w3.org/2000/svg">
<path d="M40.5742 20.1014C42.4597 20.1014 43.9882 18.5729 43.9882 16.6874C43.9882 14.8019 42.4597 13.2734 40.5742 13.2734C38.6887 13.2734 37.1602 14.8019 37.1602 16.6874C37.1602 18.5729 38.6887 20.1014 40.5742 20.1014Z" fill="#FEBBA2"/>
<path d="M37.1617 23.0254H43.9877V30.3374C43.9877 32.2214 42.4577 33.7494 40.5737 33.7494H37.1617V23.0254ZM4.01172 8.39941V39.5994L26.4377 43.5574V4.44141L4.01172 8.39941ZM20.5877 19.2214L16.6877 19.3194V30.8234H13.7617V19.5134L9.86372 19.7094V17.0774L20.5877 16.4934V19.2214ZM28.3857 20.0994V36.6754H32.2857C33.9017 36.6754 35.2117 35.3654 35.2117 33.7514V20.0994H28.3857ZM31.3117 10.3494C30.1397 10.3494 29.1017 10.8774 28.3857 11.6954V16.8054C29.0997 17.6234 30.1397 18.1514 31.3117 18.1514C32.3463 18.1514 33.3386 17.7404 34.0701 17.0088C34.8017 16.2773 35.2127 15.285 35.2127 14.2504C35.2127 13.2158 34.8017 12.2236 34.0701 11.492C33.3386 10.7604 32.3463 10.3494 31.3117 10.3494Z" fill="#FEBBA2"/>
</svg>
