<svg width="60" height="60" viewBox="0 0 60 60" fill="none" xmlns="http://www.w3.org/2000/svg">
<path d="M11.6668 9.99984H38.3335V26.3332H41.6668V9.99984C41.6668 9.11578 41.3156 8.26794 40.6905 7.64281C40.0654 7.01769 39.2175 6.6665 38.3335 6.6665H11.6668C10.7828 6.6665 9.93493 7.01769 9.30981 7.64281C8.68469 8.26794 8.3335 9.11578 8.3335 9.99984V49.9998C8.3335 50.8839 8.68469 51.7317 9.30981 52.3569C9.93493 52.982 10.7828 53.3332 11.6668 53.3332H38.3335C39.2175 53.3332 40.0654 52.982 40.6905 52.3569C41.3156 51.7317 41.6668 50.8839 41.6668 49.9998H11.6668V9.99984Z" fill="white"/>
<path d="M46.9333 28.8002C46.6145 28.5271 46.2043 28.3845 45.7849 28.4007C45.3654 28.4169 44.9675 28.5907 44.6707 28.8876C44.3739 29.1844 44.2 29.5823 44.1838 30.0018C44.1676 30.4212 44.3103 30.8313 44.5833 31.1502L50.2166 36.6668H26.05C25.6079 36.6668 25.184 36.8424 24.8715 37.155C24.5589 37.4676 24.3833 37.8915 24.3833 38.3335C24.3833 38.7755 24.5589 39.1995 24.8715 39.512C25.184 39.8246 25.6079 40.0002 26.05 40.0002H50.2166L44.5833 45.7668C44.4088 45.9163 44.2671 46.1001 44.1671 46.3069C44.0671 46.5137 44.0108 46.7389 44.002 46.9684C43.9931 47.198 44.0318 47.4268 44.1156 47.6407C44.1994 47.8546 44.3265 48.0488 44.4889 48.2113C44.6513 48.3737 44.8456 48.5008 45.0594 48.5846C45.2733 48.6684 45.5022 48.707 45.7317 48.6982C45.9613 48.6893 46.1865 48.6331 46.3933 48.5331C46.6 48.433 46.7839 48.2913 46.9333 48.1168L56.6666 38.4502L46.9333 28.8002Z" fill="white"/>
</svg>
