<svg width="60" height="60" viewBox="0 0 60 60" fill="none" xmlns="http://www.w3.org/2000/svg">
<path d="M11.6668 9.99935H38.3335V26.3327H41.6668V9.99935C41.6668 9.11529 41.3156 8.26745 40.6905 7.64233C40.0654 7.0172 39.2175 6.66602 38.3335 6.66602H11.6668C10.7828 6.66602 9.93493 7.0172 9.30981 7.64233C8.68469 8.26745 8.3335 9.11529 8.3335 9.99935V49.9994C8.3335 50.8834 8.68469 51.7313 9.30981 52.3564C9.93493 52.9815 10.7828 53.3327 11.6668 53.3327H38.3335C39.2175 53.3327 40.0654 52.9815 40.6905 52.3564C41.3156 51.7313 41.6668 50.8834 41.6668 49.9994H11.6668V9.99935Z" fill="white"/>
<path d="M46.9333 28.7992C46.6145 28.5262 46.2043 28.3835 45.7849 28.3997C45.3654 28.4159 44.9675 28.5898 44.6707 28.8866C44.3739 29.1834 44.2 29.5813 44.1838 30.0008C44.1676 30.4202 44.3103 30.8304 44.5833 31.1492L50.2166 36.6659H26.05C25.6079 36.6659 25.184 36.8415 24.8715 37.154C24.5589 37.4666 24.3833 37.8905 24.3833 38.3325C24.3833 38.7746 24.5589 39.1985 24.8715 39.511C25.184 39.8236 25.6079 39.9992 26.05 39.9992H50.2166L44.5833 45.7659C44.4088 45.9153 44.2671 46.0991 44.1671 46.3059C44.0671 46.5127 44.0108 46.7379 44.002 46.9674C43.9931 47.197 44.0318 47.4259 44.1156 47.6397C44.1994 47.8536 44.3265 48.0479 44.4889 48.2103C44.6513 48.3727 44.8456 48.4998 45.0594 48.5836C45.2733 48.6674 45.5022 48.7061 45.7317 48.6972C45.9613 48.6883 46.1865 48.6321 46.3933 48.5321C46.6 48.432 46.7839 48.2903 46.9333 48.1159L56.6666 38.4492L46.9333 28.7992Z" fill="white"/>
</svg>
