<svg width="24" height="19" viewBox="0 0 24 19" fill="none" xmlns="http://www.w3.org/2000/svg">
<path d="M4.65953 15.3081V11.0199L9.81482 13.9786C10.5945 14.4262 11.4779 14.6617 12.377 14.6617C13.2761 14.6617 14.1596 14.4262 14.9392 13.9786L20.0945 11.0212V15.3081C20.0947 15.3926 20.0782 15.4763 20.046 15.5544C20.0137 15.6325 19.9664 15.7035 19.9067 15.7633L19.9042 15.7646L19.9016 15.7685L19.8926 15.7762L19.863 15.8045L19.7601 15.8996C19.6344 16.0099 19.5053 16.1162 19.3729 16.2185C18.9109 16.5731 18.42 16.8884 17.9053 17.161C16.203 18.0637 14.304 18.5319 12.377 18.524C10.4501 18.5319 8.55102 18.0637 6.84873 17.161C6.33447 16.8883 5.84398 16.5731 5.3824 16.2185C5.21268 16.0877 5.04874 15.9495 4.89106 15.8045L4.86147 15.7762C4.79844 15.7155 4.74812 15.6428 4.71345 15.5624C4.67878 15.4821 4.66045 15.3956 4.65953 15.3081ZM23.6304 7.50838L14.2987 12.8638C13.7139 13.1995 13.0514 13.3762 12.377 13.3762C11.7027 13.3762 11.0401 13.1995 10.4554 12.8638L2.08703 8.06128V14.0223C2.08703 14.1928 2.01927 14.3564 1.89866 14.4769C1.77806 14.5975 1.61447 14.6652 1.44391 14.6652C1.27334 14.6652 1.10976 14.5975 0.989148 14.4769C0.868539 14.3564 0.800781 14.1928 0.800781 14.0223V6.95034C0.800717 6.83443 0.832002 6.72065 0.891326 6.62106C0.95065 6.52146 1.0358 6.43975 1.13778 6.38458L10.4554 1.03687C11.04 0.700796 11.7026 0.523926 12.377 0.523926C13.0514 0.523926 13.7141 0.700796 14.2987 1.03687L23.6304 6.39358C23.7285 6.44992 23.81 6.53112 23.8666 6.62898C23.9233 6.72685 23.9531 6.83791 23.9531 6.95098C23.9531 7.06405 23.9233 7.17511 23.8666 7.27298C23.81 7.37084 23.7285 7.45204 23.6304 7.50838Z" fill="black"/>
</svg>
