<svg width="60" height="60" viewBox="0 0 60 60" fill="none" xmlns="http://www.w3.org/2000/svg">
<path d="M50.8344 9.6875H44.0625V6.5625C44.0625 5.69844 43.3641 5 42.5 5C41.6359 5 40.9375 5.69844 40.9375 6.5625V9.6875H31.5625V6.5625C31.5625 5.69844 30.8625 5 30 5C29.1375 5 28.4375 5.69844 28.4375 6.5625V9.6875H19.0625V6.5625C19.0625 5.69844 18.3625 5 17.5 5C16.6375 5 15.9375 5.69844 15.9375 6.5625V9.6875H9.16719C6.86563 9.6875 5 11.5516 5 13.8531V50.8328C5 53.1344 6.86563 55 9.16719 55H50.8344C53.1359 55 55 53.1344 55 50.8328V13.8531C55 11.5516 53.1359 9.6875 50.8344 9.6875ZM51.875 50.8328C51.875 51.4078 51.4078 51.875 50.8344 51.875H9.16719C8.59219 51.875 8.125 51.4078 8.125 50.8328V13.8531C8.125 13.2797 8.59219 12.8125 9.16719 12.8125H15.9375V15.9375C15.9375 16.8016 16.6375 17.5 17.5 17.5C18.3625 17.5 19.0625 16.8016 19.0625 15.9375V12.8125H28.4375V15.9375C28.4375 16.8016 29.1375 17.5 30 17.5C30.8625 17.5 31.5625 16.8016 31.5625 15.9375V12.8125H40.9375V15.9375C40.9375 16.8016 41.6359 17.5 42.5 17.5C43.3641 17.5 44.0625 16.8016 44.0625 15.9375V12.8125H50.8344C51.4078 12.8125 51.875 13.2797 51.875 13.8531V50.8328Z" fill="white"/>
<path d="M22.1875 23.75H15.9375V28.4375H22.1875V23.75Z" fill="white"/>
<path d="M22.1875 31.5625H15.9375V36.25H22.1875V31.5625Z" fill="white"/>
<path d="M22.1875 39.375H15.9375V44.0625H22.1875V39.375Z" fill="white"/>
<path d="M33.125 39.375H26.875V44.0625H33.125V39.375Z" fill="white"/>
<path d="M33.125 31.5625H26.875V36.25H33.125V31.5625Z" fill="white"/>
<path d="M33.125 23.75H26.875V28.4375H33.125V23.75Z" fill="white"/>
<path d="M44.0625 39.375H37.8125V44.0625H44.0625V39.375Z" fill="white"/>
<path d="M44.0625 31.5625H37.8125V36.25H44.0625V31.5625Z" fill="white"/>
<path d="M44.0625 23.75H37.8125V28.4375H44.0625V23.75Z" fill="white"/>
</svg>
