<svg width="50" height="50" viewBox="0 0 50 50" fill="none" xmlns="http://www.w3.org/2000/svg">
<path d="M42.3633 8.07288H36.7201V5.46871C36.7201 4.74866 36.138 4.16663 35.418 4.16663C34.6979 4.16663 34.1159 4.74866 34.1159 5.46871V8.07288H26.3034V5.46871C26.3034 4.74866 25.7201 4.16663 25.0013 4.16663C24.2826 4.16663 23.6992 4.74866 23.6992 5.46871V8.07288H15.8867V5.46871C15.8867 4.74866 15.3034 4.16663 14.5846 4.16663C13.8659 4.16663 13.2826 4.74866 13.2826 5.46871V8.07288H7.64063C5.72266 8.07288 4.16797 9.62626 4.16797 11.5442V42.3606C4.16797 44.2786 5.72266 45.8333 7.64063 45.8333H42.3633C44.2812 45.8333 45.8346 44.2786 45.8346 42.3606V11.5442C45.8346 9.62626 44.2812 8.07288 42.3633 8.07288ZM43.2305 42.3606C43.2305 42.8398 42.8411 43.2291 42.3633 43.2291H7.64063C7.16146 43.2291 6.77214 42.8398 6.77214 42.3606V11.5442C6.77214 11.0664 7.16146 10.677 7.64063 10.677H13.2826V13.2812C13.2826 14.0013 13.8659 14.5833 14.5846 14.5833C15.3034 14.5833 15.8867 14.0013 15.8867 13.2812V10.677H23.6992V13.2812C23.6992 14.0013 24.2826 14.5833 25.0013 14.5833C25.7201 14.5833 26.3034 14.0013 26.3034 13.2812V10.677H34.1159V13.2812C34.1159 14.0013 34.6979 14.5833 35.418 14.5833C36.138 14.5833 36.7201 14.0013 36.7201 13.2812V10.677H42.3633C42.8411 10.677 43.2305 11.0664 43.2305 11.5442V42.3606Z" fill="#333332"/>
<path d="M18.4896 19.7916H13.2812V23.6979H18.4896V19.7916Z" fill="#333332"/>
<path d="M18.4896 26.302H13.2812V30.2083H18.4896V26.302Z" fill="#333332"/>
<path d="M18.4896 32.8125H13.2812V36.7188H18.4896V32.8125Z" fill="#333332"/>
<path d="M27.6068 32.8125H22.3984V36.7188H27.6068V32.8125Z" fill="#333332"/>
<path d="M27.6068 26.302H22.3984V30.2083H27.6068V26.302Z" fill="#333332"/>
<path d="M27.6068 19.7916H22.3984V23.6979H27.6068V19.7916Z" fill="#333332"/>
<path d="M36.7201 32.8125H31.5117V36.7188H36.7201V32.8125Z" fill="#333332"/>
<path d="M36.7201 26.302H31.5117V30.2083H36.7201V26.302Z" fill="#333332"/>
<path d="M36.7201 19.7916H31.5117V23.6979H36.7201V19.7916Z" fill="#333332"/>
</svg>
