<svg width="16" height="18" viewBox="0 0 16 18" fill="none" xmlns="http://www.w3.org/2000/svg">
<path fill-rule="evenodd" clip-rule="evenodd" d="M12.0575 11.6908C14.094 8.90557 13.91 4.87602 11.5057 2.3156C8.90222 -0.456925 4.68112 -0.456925 2.07762 2.3156C-0.525874 5.08812 -0.525874 9.58327 2.07762 12.3558C4.48194 14.9162 8.26583 15.1121 10.8812 12.9434C10.8925 12.957 10.9043 12.9703 10.9165 12.9833L14.452 16.7484C14.7774 17.095 15.3051 17.095 15.6305 16.7484C15.9559 16.4018 15.9559 15.8399 15.6305 15.4934L12.095 11.7283C12.0828 11.7153 12.0703 11.7028 12.0575 11.6908ZM10.3272 3.57062C12.2798 5.65002 12.2798 9.02138 10.3272 11.1008C8.37458 13.1802 5.20875 13.1802 3.25613 11.1008C1.30351 9.02138 1.30351 5.65002 3.25613 3.57062C5.20875 1.49123 8.37458 1.49123 10.3272 3.57062Z" fill="#BAB1B1"/>
</svg>
