<svg width="35" height="35" viewBox="0 0 35 35" fill="none" xmlns="http://www.w3.org/2000/svg">
<path fill-rule="evenodd" clip-rule="evenodd" d="M25.3969 20.9738C24.9623 20.7565 22.8317 19.7094 22.435 19.5636C22.0383 19.4192 21.7496 19.3478 21.4594 19.7823C21.1706 20.214 20.3408 21.1911 20.0885 21.4798C19.8348 21.7701 19.5825 21.8051 19.1494 21.5892C18.7162 21.3705 17.3192 20.914 15.664 19.4382C14.3762 18.289 13.5056 16.8701 13.2533 16.4355C13.001 16.0023 13.2256 15.7676 13.4429 15.5517C13.6383 15.3578 13.876 15.0457 14.0933 14.7934C14.3106 14.5396 14.3821 14.3588 14.5265 14.0686C14.6723 13.7798 14.5994 13.5276 14.49 13.3103C14.3821 13.093 13.5158 10.9594 13.1542 10.0917C12.8027 9.24735 12.4454 9.36256 12.18 9.34797C11.9262 9.33631 11.6375 9.33339 11.3487 9.33339C11.06 9.33339 10.5904 9.44131 10.1937 9.87589C9.79562 10.309 8.67708 11.3576 8.67708 13.4911C8.67708 15.6232 10.2287 17.6838 10.446 17.974C10.6633 18.2628 13.5013 22.6407 17.8485 24.5176C18.884 24.9638 19.6904 25.2307 20.319 25.429C21.3573 25.7601 22.3023 25.7134 23.049 25.6011C23.8802 25.4771 25.6127 24.5526 25.9744 23.5405C26.3346 22.5284 26.3346 21.6607 26.2267 21.4798C26.1187 21.299 25.83 21.1911 25.3954 20.9738H25.3969ZM17.4898 31.7698H17.484C14.9019 31.7703 12.3672 31.0762 10.1456 29.7603L9.62062 29.4482L4.16354 30.8803L5.62042 25.5603L5.27771 25.0148C3.83416 22.717 3.07022 20.0576 3.07417 17.344C3.07708 9.3961 9.54333 2.92985 17.4956 2.92985C21.3456 2.92985 24.9652 4.43193 27.6865 7.1561C29.0287 8.49278 30.0925 10.0823 30.8164 11.8328C31.5404 13.5833 31.91 15.46 31.904 17.3542C31.901 25.3021 25.4348 31.7698 17.4898 31.7698ZM29.7573 5.08673C28.1505 3.46932 26.2387 2.18688 24.1326 1.31373C22.0266 0.440569 19.7682 -0.00594453 17.4883 5.97589e-05C7.93042 5.97589e-05 0.14875 7.78027 0.145833 17.3426C0.141404 20.3857 0.939713 23.3762 2.46021 26.0123L0 35L9.19333 32.588C11.7365 33.9736 14.5864 34.6996 17.4825 34.6996H17.4898C27.0477 34.6996 34.8294 26.9194 34.8323 17.3557C34.8393 15.0767 34.3944 12.819 33.5233 10.713C32.6522 8.60709 31.3722 6.69479 29.7573 5.08673Z" fill="black" fill-opacity="0.5"/>
</svg>
