<svg width="42" height="42" viewBox="0 0 42 42" fill="none" xmlns="http://www.w3.org/2000/svg">
<g clip-path="url(#clip0_775_20079)">
<path fill-rule="evenodd" clip-rule="evenodd" d="M30.4763 25.1686C29.9548 24.9078 27.398 23.6513 26.922 23.4763C26.446 23.3031 26.0995 23.2173 25.7513 23.7388C25.4048 24.2568 24.409 25.4293 24.1062 25.7758C23.8018 26.1241 23.499 26.1661 22.9792 25.9071C22.4595 25.6446 20.783 25.0968 18.7968 23.3258C17.2515 21.9468 16.2068 20.2441 15.904 19.7226C15.6013 19.2028 15.8708 18.9211 16.1315 18.6621C16.366 18.4293 16.6512 18.0548 16.912 17.7521C17.1727 17.4476 17.2585 17.2306 17.4318 16.8823C17.6068 16.5358 17.5192 16.2331 17.388 15.9723C17.2585 15.7116 16.219 13.1513 15.785 12.1101C15.3633 11.0968 14.9345 11.2351 14.616 11.2176C14.3115 11.2036 13.965 11.2001 13.6185 11.2001C13.272 11.2001 12.7085 11.3296 12.2325 11.8511C11.7547 12.3708 10.4125 13.6291 10.4125 16.1893C10.4125 18.7478 12.2745 21.2206 12.5352 21.5688C12.796 21.9153 16.2015 27.1688 21.4183 29.4211C22.6608 29.9566 23.6285 30.2768 24.3827 30.5148C25.6287 30.9121 26.7628 30.8561 27.6588 30.7213C28.6562 30.5726 30.7353 29.4631 31.1693 28.2486C31.6015 27.0341 31.6015 25.9928 31.472 25.7758C31.3425 25.5588 30.996 25.4293 30.4745 25.1686H30.4763ZM20.9878 38.1238H20.9808C17.8823 38.1244 14.8407 37.2914 12.1747 35.7123L11.5448 35.3378L4.99625 37.0563L6.7445 30.6723L6.33325 30.0178C4.60099 27.2604 3.68427 24.0692 3.689 20.8128C3.6925 11.2753 11.452 3.51582 20.9947 3.51582C25.6147 3.51582 29.9583 5.31832 33.2238 8.58732C34.8344 10.1913 36.111 12.0988 36.9797 14.1994C37.8484 16.3 38.292 18.552 38.2848 20.8251C38.2812 30.3626 30.5217 38.1238 20.9878 38.1238ZM35.7088 6.10407C33.7806 4.16319 31.4864 2.62426 28.9592 1.57647C26.4319 0.528683 23.7218 -0.00713343 20.986 7.17107e-05C9.5165 7.17107e-05 0.1785 9.33632 0.175 20.8111C0.169685 24.4629 1.12766 28.0515 2.95225 31.2148L0 42.0001L11.032 39.1056C14.0838 40.7683 17.5037 41.6395 20.979 41.6396H20.9878C32.4572 41.6396 41.7952 32.3033 41.7988 20.8268C41.8072 18.0921 41.2733 15.3827 40.228 12.8556C39.1827 10.3285 37.6466 8.03374 35.7088 6.10407Z" fill="#FEBBA2"/>
</g>
<defs>
<clipPath id="clip0_775_20079">
<rect width="42" height="42" fill="white"/>
</clipPath>
</defs>
</svg>
